# File created by Blade
# Date/Time:  Mon Sep 22 17:46:01 2014
# Frame Rate: 120.000 fps
#------------------------------------------------------
:FULLY-SPECIFIED
:DEGREES
3116
root 5.441873 37.431788 4.332433 -1.423418 -37.389584 -13.381848
RightUpLeg 4.246117 -19.153505 -15.078716
RightLeg 56.515841 -0.000000 -0.000000
RightFoot -5.172557 -30.799974 15.554276
RightToeBase -4.627195 -0.000000 0.000000
LeftUpLeg 16.801205 14.120493 3.622848
LeftLeg -5.234702 -0.000000 0.000000
LeftFoot -14.435873 27.442176 -12.821333
LeftToeBase 5.965781 -0.000000 -0.000000
Spine 20.879642 -8.384752 -21.783444
RightShoulder -1.162470 -31.609569 -6.556099
RightArm 14.846727 -16.694858 72.745418
RightForeArm 3.419329 -0.000000 61.202351
RightHand -1.790846 0.000000 -19.994236
RightHandThumb1 -24.326973 -0.000000 -32.862282
LeftShoulder -14.532664 29.996590 11.051280
LeftArm 51.817778 -42.305701 -74.532680
LeftForeArm 32.529673 -0.000000 112.335413
LeftHand -36.020558 -0.000000 22.829290
LeftHandThumb1 -26.253704 0.000000 33.147579
Head 26.349494 29.454743 22.161457
3117
root 5.428278 37.438147 4.340310 -1.443550 -37.184912 -13.474302
RightUpLeg 4.111417 -20.080432 -15.227692
RightLeg 59.149974 -0.000000 -0.000000
RightFoot -5.324632 -30.753031 15.484196
RightToeBase -4.268905 -0.000000 0.000000
LeftUpLeg 16.953339 14.029135 3.751135
LeftLeg -5.397623 -0.000000 0.000000
LeftFoot -14.324996 27.363267 -12.796013
LeftToeBase 5.935379 -0.000000 -0.000000
Spine 20.971420 -8.549124 -21.630093
RightShoulder -1.160386 -31.582764 -6.502606
RightArm 14.751470 -16.619585 72.697058
RightForeArm 3.488877 -0.000000 61.181669
RightHand -1.869871 -0.000000 -20.093817
RightHandThumb1 -24.326973 -0.000000 -32.862282
LeftShoulder -14.459883 30.035172 10.995571
LeftArm 51.748244 -42.290490 -74.500766
LeftForeArm 32.578209 0.000000 112.325119
LeftHand -36.138836 0.000000 22.802713
LeftHandThumb1 -26.253704 0.000000 33.147579
Head 26.517678 29.441484 22.209344
3118
root 5.412983 37.447686 4.347372 -1.428025 -36.924662 -13.572434
RightUpLeg 4.031259 -21.015594 -15.350448
RightLeg 61.641925 -0.000000 -0.000000
RightFoot -5.535737 -30.621185 15.555531
RightToeBase -4.001081 -0.000000 0.000000
LeftUpLeg 17.030411 13.919411 3.891687
LeftLeg -5.472207 -0.000000 0.000000
LeftFoot -14.162007 27.204457 -12.651328
LeftToeBase 5.797180 -0.000000 -0.000000
Spine 21.027564 -8.769769 -21.475514
RightShoulder -1.172328 -31.640534 -6.439206
RightArm 14.746776 -16.531218 72.648962
RightForeArm 3.618110 -0.000000 61.112851
RightHand -1.897693 0.000000 -20.112638
RightHandThumb1 -24.326973 -0.000000 -32.862282
LeftShoulder -14.380132 30.121396 10.935305
LeftArm 51.683828 -42.279499 -74.455175
LeftForeArm 32.671806 0.000000 112.304286
LeftHand -36.226723 -0.000000 22.715521
LeftHandThumb1 -26.253704 0.000000 33.147579
Head 26.725529 29.396182 22.285913
3119
root 5.395831 37.457856 4.357422 -1.435827 -36.598692 -13.628520
RightUpLeg 4.051158 -21.962626 -15.524694
RightLeg 64.001608 -0.000000 -0.000000
RightFoot -5.744461 -30.288505 15.535146
RightToeBase -4.081392 -0.000000 0.000000
LeftUpLeg 17.072843 13.787005 4.005816
LeftLeg -5.496657 -0.000000 0.000000
LeftFoot -14.035388 26.997663 -12.567272
LeftToeBase 5.703100 -0.000000 -0.000000
Spine 21.098857 -9.051589 -21.376239
RightShoulder -1.195262 -31.673672 -6.368489
RightArm 14.732941 -16.476040 72.612857
RightForeArm 3.698377 -0.000000 60.989039
RightHand -1.833737 -0.000000 -20.142205
RightHandThumb1 -24.326973 -0.000000 -32.862282
LeftShoulder -14.343583 30.183824 10.871883
LeftArm 51.550670 -42.245594 -74.291779
LeftForeArm 32.768156 -0.000000 112.267146
LeftHand -36.320798 -0.000000 22.332011
LeftHandThumb1 -26.253704 0.000000 33.147579
Head 26.928631 29.333903 22.368435
3120
root 5.381905 37.466632 4.365549 -1.428640 -36.304916 -13.677009
RightUpLeg 4.084330 -22.839268 -15.680081
RightLeg 66.238981 -0.000000 -0.000000
RightFoot -5.780689 -29.828958 15.309871
RightToeBase -4.372719 -0.000000 0.000000
LeftUpLeg 17.077663 13.716406 4.115850
LeftLeg -5.487789 -0.000000 0.000000
LeftFoot -13.882146 26.761061 -12.398922
LeftToeBase 5.555178 -0.000000 -0.000000
Spine 21.142609 -9.301126 -21.257099
RightShoulder -1.241798 -31.695920 -6.316622
RightArm 14.720962 -16.411306 72.615295
RightForeArm 3.706239 -0.000000 60.852695
RightHand -1.817843 0.000000 -20.064812
RightHandThumb1 -24.326973 -0.000000 -32.862282
LeftShoulder -14.308869 30.251169 10.794610
LeftArm 51.440075 -42.201313 -74.118218
LeftForeArm 32.641516 0.000000 112.191556
LeftHand -36.326664 -0.000000 22.796117
LeftHandThumb1 -26.253704 0.000000 33.147579
Head 27.135686 29.231935 22.494578
3121
root 5.365236 37.475439 4.379448 -1.443456 -35.985003 -13.698666
RightUpLeg 4.220990 -23.671405 -15.871088
RightLeg 68.300725 -0.000000 -0.000000
RightFoot -5.937085 -29.257596 15.261635
RightToeBase -4.076591 -0.000000 0.000000
LeftUpLeg 17.079776 13.643449 4.195978
LeftLeg -5.473328 -0.000000 0.000000
LeftFoot -13.798594 26.565239 -12.366947
LeftToeBase 5.498900 -0.000000 -0.000000
Spine 21.178468 -9.564786 -21.169373
RightShoulder -1.306563 -31.695443 -6.250709
RightArm 14.685739 -16.386342 72.621235
RightForeArm 3.748382 -0.000000 60.694101
RightHand -1.844125 -0.000000 -20.032602
RightHandThumb1 -24.326973 -0.000000 -32.862282
LeftShoulder -14.293443 30.316896 10.719641
LeftArm 51.301214 -42.131287 -73.903809
LeftForeArm 32.547171 -0.000000 112.120604
LeftHand -36.351430 -0.000000 22.882074
LeftHandThumb1 -26.253704 0.000000 33.147579
Head 27.339143 29.139731 22.618788
3122
root 5.356469 37.479976 4.392953 -1.450664 -35.731389 -13.664832
RightUpLeg 4.321023 -24.451160 -16.097061
RightLeg 70.231000 -0.000000 -0.000000
RightFoot -5.802486 -28.708987 14.842502
RightToeBase -4.460557 -0.000000 0.000000
LeftUpLeg 17.031889 13.556487 4.184277
LeftLeg -5.451303 -0.000000 0.000000
LeftFoot -13.697492 26.478013 -12.272252
LeftToeBase 5.401149 -0.000000 -0.000000
Spine 21.152850 -9.781926 -21.108424
RightShoulder -1.360991 -31.681655 -6.223146
RightArm 14.647225 -16.379282 72.652081
RightForeArm 3.789887 0.000000 60.511404
RightHand -1.861458 0.000000 -20.011956
RightHandThumb1 -24.326973 -0.000000 -32.862282
LeftShoulder -14.298680 30.393074 10.636038
LeftArm 51.156623 -42.061740 -73.678599
LeftForeArm 32.423415 -0.000000 112.047478
LeftHand -36.255498 -0.000000 22.934685
LeftHandThumb1 -26.253704 0.000000 33.147579
Head 27.512632 29.064091 22.701349
3123
root 5.346925 37.484008 4.411091 -1.465684 -35.463696 -13.647954
RightUpLeg 4.519059 -25.206880 -16.341527
RightLeg 71.972098 -0.000000 -0.000000
RightFoot -5.742860 -28.118432 14.591255
RightToeBase -4.665522 -0.000000 0.000000
LeftUpLeg 17.008055 13.359021 4.173087
LeftLeg -5.428243 -0.000000 0.000000
LeftFoot -13.705973 26.442814 -12.308649
LeftToeBase 5.413306 -0.000000 -0.000000
Spine 21.142769 -10.011290 -21.007912
RightShoulder -1.394077 -31.817108 -6.207635
RightArm 14.716107 -16.305547 72.659736
RightForeArm 3.872999 0.000000 60.357510
RightHand -1.826856 -0.000000 -20.067464
RightHandThumb1 -24.326973 -0.000000 -32.862282
LeftShoulder -14.360871 30.476545 10.480617
LeftArm 51.019394 -41.952690 -73.371834
LeftForeArm 32.210724 -0.000000 111.942497
LeftHand -36.079449 -0.000000 23.171570
LeftHandThumb1 -26.253704 0.000000 33.147579
Head 27.667549 28.935477 22.717393
3124
root 5.335962 37.487307 4.428953 -1.482241 -35.290105 -13.632647
RightUpLeg 4.725652 -25.850122 -16.568103
RightLeg 73.544041 -0.000000 -0.000000
RightFoot -5.870456 -27.592659 14.629926
RightToeBase -4.526063 -0.000000 0.000000
LeftUpLeg 17.003880 13.215761 4.169374
LeftLeg -5.392518 -0.000000 0.000000
LeftFoot -13.709072 26.376728 -12.338569
LeftToeBase 5.362174 -0.000000 -0.000000
Spine 21.101235 -10.144542 -20.901068
RightShoulder -1.430166 -31.839541 -6.212495
RightArm 14.681926 -16.287579 72.709058
RightForeArm 3.960100 -0.000000 60.194344
RightHand -1.819016 -0.000000 -20.027536
RightHandThumb1 -24.326973 -0.000000 -32.862282
LeftShoulder -14.415265 30.529407 10.351795
LeftArm 50.922529 -41.832780 -73.166333
LeftForeArm 32.167580 -0.000000 111.868388
LeftHand -36.121034 -0.000000 23.107399
LeftHandThumb1 -26.253704 0.000000 33.147579
Head 27.801975 28.800759 22.717699
3125
root 5.322452 37.489135 4.451293 -1.504226 -35.175099 -13.606142
RightUpLeg 4.962418 -26.405856 -16.790213
RightLeg 74.940938 -0.000000 -0.000000
RightFoot -5.843286 -27.112028 14.468826
RightToeBase -4.821934 -0.000000 0.000000
LeftUpLeg 17.011744 13.103440 4.160075
LeftLeg -5.327861 -0.000000 0.000000
LeftFoot -13.698077 26.307859 -12.290938
LeftToeBase 5.269934 -0.000000 -0.000000
Spine 21.019103 -10.212625 -20.783524
RightShoulder -1.474943 -31.873214 -6.222964
RightArm 14.626904 -16.279790 72.768486
RightForeArm 4.148483 -0.000000 60.051701
RightHand -1.815332 -0.000000 -20.019873
RightHandThumb1 -24.326973 -0.000000 -32.862282
LeftShoulder -14.469380 30.558847 10.234177
LeftArm 50.750607 -41.686320 -72.902984
LeftForeArm 32.057243 -0.000000 111.790288
LeftHand -36.044184 -0.000000 23.283576
LeftHandThumb1 -26.253704 0.000000 33.147579
Head 27.931540 28.684356 22.716173
3126
root 5.309622 37.488452 4.475338 -1.525694 -35.108976 -13.579196
RightUpLeg 5.207539 -26.886333 -16.999017
RightLeg 76.162520 -0.000000 -0.000000
RightFoot -5.751276 -26.769770 14.400125
RightToeBase -4.882764 -0.000000 0.000000
LeftUpLeg 17.021305 13.106090 4.149629
LeftLeg -5.275819 -0.000000 0.000000
LeftFoot -13.703675 26.270577 -12.237346
LeftToeBase 5.295376 -0.000000 -0.000000
Spine 20.918726 -10.223552 -20.648970
RightShoulder -1.520683 -31.899067 -6.238625
RightArm 14.558737 -16.297424 72.820177
RightForeArm 4.516429 -0.000000 59.902261
RightHand -1.741205 -0.000000 -20.141946
RightHandThumb1 -24.326973 -0.000000 -32.862282
LeftShoulder -14.497989 30.592052 10.112254
LeftArm 50.542028 -41.579558 -72.615318
LeftForeArm 31.822758 0.000000 111.740149
LeftHand -35.606677 -0.000000 23.683868
LeftHandThumb1 -26.253704 0.000000 33.147579
Head 28.026589 28.545436 22.708259
